#!OML:ASF Y:\EmotionMaleHayes\Project 1\Capture day 1\Session 1\Male1.ASF
:FULLY-SPECIFIED
:DEGREES
213
root -7.80627 16.0532 -0.282945 125.161 78.5433 119.593
lowerback 13.1969 -2.45293 -11.5265
upperback 4.81047 -4.37201 1.79631
thorax -1.19647 -2.23906 9.01364
lowerneck -23.2267 3.54979 6.67467
upperneck 19.508 3.21293 -2.38978
head 10.2111 1.70481 -1.44451
rclavicle 2.3059e-014 -5.56597e-015
rhumerus -37.8016 -5.78814 -58.1633
rradius 44.2199
rwrist 7.74311
rhand -15.6761 -23.5197
rfingers 7.12502
rthumb 10.5126 -53.2368
lclavicle 2.3059e-014 -5.56597e-015
lhumerus -22.4859 -30.2764 82.9165
lradius 83.0762
lwrist 10.1824
lhand -32.6658 -34.2913
lfingers 7.12502
lthumb -5.8916 -4.39322
rfemur -37.5609 -4.43284 8.83951
rtibia 40.8817
rfoot -15.4018 -7.09969
rtoes 9.74998
lfemur 19.5448 -3.82932 -31.4283
ltibia 34.9426
lfoot 8.08206 1.39862
ltoes 0.989701
214
root -7.5304 16.1435 -0.283086 125.792 79.3057 120.483
lowerback 13.3569 -2.34572 -10.6346
upperback 4.7554 -4.14054 1.9117
thorax -1.46741 -2.09647 8.61918
lowerneck -23.3533 3.40167 6.62368
upperneck 19.8276 3.03788 -2.44923
head 10.3407 1.61725 -1.48462
rclavicle 1.90833e-014 -5.56597e-015
rhumerus -36.4536 -9.81319 -58.6456
rradius 42.5286
rwrist 8.48503
rhand -16.3622 -23.8935
rfingers 7.12502
rthumb 9.85068 -53.6431
lclavicle 1.90833e-014 -5.56597e-015
lhumerus -24.7164 -30.3672 84.869
lradius 80.7754
lwrist 9.4698
lhand -32.1102 -33.8858
lfingers 7.12502
lthumb -5.35511 -3.9735
rfemur -35.3005 -3.86689 9.82719
rtibia 39.4693
rfoot -15.9417 -6.97207
rtoes 8.51373
lfemur 17.7597 -3.50307 -30.4823
ltibia 38.5045
lfoot 8.05655 2.06023
ltoes 1.74868
215
root -7.25685 16.2346 -0.283273 126.471 80.3041 121.317
lowerback 13.2888 -2.15463 -9.57396
upperback 4.71303 -3.75154 2.05843
thorax -1.63823 -1.88395 8.12423
lowerneck -23.3565 3.16693 6.49963
upperneck 20.0334 2.77616 -2.50778
head 10.4014 1.48417 -1.52751
rclavicle 2.38542e-015 1.59028e-014
rhumerus -35.4586 -13.3138 -59.3725
rradius 41.364
rwrist 8.07164
rhand -17.348 -24.6531
rfingers 7.12502
rthumb 8.89951 -54.4454
lclavicle 2.38542e-015 1.59028e-014
lhumerus -26.627 -30.4909 86.7493
lradius 78.068
lwrist 8.80826
lhand -31.4406 -33.218
lfingers 7.12502
lthumb -4.70859 -3.29034
rfemur -33.1353 -3.15017 11.0624
rtibia 37.9784
rfoot -16.566 -6.83635
rtoes 7.29815
lfemur 15.8274 -2.77498 -29.1648
ltibia 41.8519
lfoot 6.1501 2.30179
ltoes 2.56213
216
root -6.9861 16.3252 -0.281086 128.955 81.5404 123.902
lowerback 13.1317 -2.00458 -8.23558
upperback 4.68855 -3.36875 2.34619
thorax -1.73664 -1.67929 7.61337
lowerneck -23.3754 2.96854 6.33392
upperneck 20.2323 2.5898 -2.61252
head 10.4662 1.37603 -1.56846
rclavicle -1.03368e-014 -1.59028e-014
rhumerus -34.4233 -16.3275 -60.32
rradius 40.3762
rwrist 6.90279
rhand -18.499 -25.7357
rfingers 7.12502
rthumb 7.78874 -55.5723
lclavicle -1.03368e-014 -1.59028e-014
lhumerus -28.1977 -30.3858 88.5532
lradius 74.9139
lwrist 7.98566
lhand -30.7208 -32.3032
lfingers 7.12502
lthumb -4.01348 -2.36129
rfemur -30.9409 -2.2988 12.6555
rtibia 36.2874
rfoot -17.1767 -6.70953
rtoes 7.29724
lfemur 13.7706 -1.81997 -27.3298
ltibia 44.8313
lfoot 4.39509 2.39853
ltoes 2.80175
217
root -6.71781 16.4147 -0.276734 132.962 82.9403 127.925
lowerback 12.8215 -1.83182 -6.73607
upperback 4.72437 -2.9243 2.6818
thorax -1.68995 -1.45049 7.04007
lowerneck -23.6593 2.81916 6.23137
upperneck 20.5151 2.4396 -2.7517
head 10.6134 1.28342 -1.6259
rclavicle -1.59028e-014 6.36111e-015
rhumerus -33.2467 -19.3529 -61.375
rradius 39.1898
rwrist 5.99102
rhand -19.2192 -25.9768
rfingers 7.12502
rthumb 7.09356 -55.8379
lclavicle -1.59028e-014 6.36111e-015
lhumerus -29.2184 -30.317 90.1555
lradius 71.2199
lwrist 7.50336
lhand -29.5382 -30.9853
lfingers 7.12502
lthumb -2.87149 -1.02488
rfemur -28.7817 -1.35312 14.509
rtibia 34.3293
rfoot -17.4742 -6.67836
rtoes 6.27602
lfemur 11.5645 -0.794065 -25.2731
ltibia 47.3999
lfoot 3.55207 2.60729
ltoes 5.86359
218
root -6.45551 16.5073 -0.279098 136.366 84.5497 131.434
lowerback 12.7977 -1.46377 -5.16389
upperback 4.65575 -2.23974 2.96439
thorax -1.93054 -1.08601 6.35275
lowerneck -23.8623 2.55493 5.97398
upperneck 20.9205 2.15457 -2.72481
head 10.7809 1.14113 -1.62131
rclavicle -2.10712e-014 2.78299e-014
rhumerus -32.5699 -21.7627 -62.4254
rradius 38.2761
rwrist 4.58428
rhand -19.4176 -24.7929
rfingers 7.12502
rthumb 6.90201 -54.6604
lclavicle -2.10712e-014 2.78299e-014
lhumerus -30.2991 -30.348 91.7969
lradius 67.3976
lwrist 7.40091
lhand -27.9781 -29.1903
lfingers 7.12502
lthumb -1.36473 0.785103
rfemur -26.6649 -0.305808 16.444
rtibia 32.5366
rfoot -17.7894 -6.40045
rtoes 5.24004
lfemur 9.40333 0.537865 -23.2846
ltibia 49.6046
lfoot 3.06515 2.66995
ltoes 8.7244
219
root -6.17791 16.6078 -0.269654 148.706 85.3708 144.177
lowerback 13.2044 -1.32517 -3.65056
upperback 4.48263 -1.86527 3.29289
thorax -2.4369 -0.868672 5.80388
lowerneck -23.8467 2.25488 5.619
upperneck 21.3889 1.85649 -2.62697
head 10.9312 0.997676 -1.57848
rclavicle -3.18055e-015 7.95139e-016
rhumerus -32.3157 -22.7234 -63.9256
rradius 38.3645
rwrist 1.38421
rhand -20.4875 -25.9349
rfingers 7.12502
rthumb 5.8692 -55.8336
lclavicle -3.18055e-015 7.95139e-016
lhumerus -31.7052 -30.1923 93.5865
lradius 63.5694
lwrist 6.86758
lhand -26.639 -27.245
lfingers 7.12502
lthumb -0.0713839 2.73477
rfemur -23.7116 0.253402 18.2066
rtibia 30.3355
rfoot -18.4207 -6.37691
rtoes 5.46681
lfemur 7.46456 1.26069 -21.2027
ltibia 51.5748
lfoot 2.61392 2.77304
ltoes 7.82966
220
root -5.91592 16.6983 -0.272687 162.513 86.2417 158.176
lowerback 13.1118 -1.12055 -2.21585
upperback 4.54197 -1.38965 3.60005
thorax -2.41939 -0.622504 5.23426
lowerneck -23.9756 2.06716 5.42011
upperneck 21.6279 1.69472 -2.73345
head 11.0345 0.896774 -1.6126
rclavicle 8.34896e-015 0
rhumerus -31.2304 -23.7378 -65.6661
rradius 37.9081
rwrist -1.09161
rhand -21.5285 -26.5804
rfingers 7.12502
rthumb 4.86409 -56.5045
lclavicle 8.34896e-015 0
lhumerus -32.2224 -29.8147 94.9162
lradius 59.3296
lwrist 6.12953
lhand -25.3572 -25.2482
lfingers 7.12502
lthumb 1.16655 4.72832
rfemur -21.2663 0.849633 19.8552
rtibia 28.3689
rfoot -18.8867 -5.91001
rtoes 6.90707
lfemur 5.13981 2.29885 -19.4164
ltibia 53.4066
lfoot 1.49291 2.47113
ltoes 4.8561
221
root -5.66643 16.7775 -0.282678 176.007 87.3593 171.584
lowerback 13.0597 -0.684409 -1.08314
upperback 4.39874 -0.666309 3.74174
thorax -2.63526 -0.25309 4.63008
lowerneck -24.0568 1.90429 5.34975
upperneck 21.9212 1.523 -2.82564
head 11.1508 0.805672 -1.66526
rclavicle -1.19271e-015 4.77083e-014
rhumerus -30.2142 -23.7195 -67.6592
rradius 37.5163
rwrist -3.86105
rhand -22.386 -27.916
rfingers 7.12502
rthumb 4.03604 -57.8575
lclavicle -1.19271e-015 4.77083e-014
lhumerus -32.5793 -29.512 96.0509
lradius 54.8863
lwrist 5.60565
lhand -23.7467 -23.0124
lfingers 7.12502
lthumb 2.72198 6.94998
rfemur -19.5509 1.44755 21.1683
rtibia 26.8278
rfoot -19.0497 -5.15761
rtoes 7.59486
lfemur 2.51374 3.86537 -18.1637
ltibia 55.1068
lfoot 0.55443 1.97907
ltoes 2.21205
222
root -5.40118 16.8678 -0.28179 189.744 87.2899 185.592
lowerback 13.4046 -0.538065 -0.205841
upperback 4.2569 -0.345975 3.8068
thorax -3.00744 -0.0840792 4.15716
lowerneck -24.1495 1.74657 5.3456
upperneck 22.2816 1.32968 -2.89457
head 11.2945 0.715016 -1.72507
rclavicle 1.03368e-014 4.77083e-015
rhumerus -29.4401 -22.1603 -69.9694
rradius 37.7082
rwrist -7.84719
rhand -23.2803 -29.6812
rfingers 7.12502
rthumb 3.1724 -59.6374
lclavicle 1.03368e-014 4.77083e-015
lhumerus -32.9682 -29.1104 97.03
lradius 50.4241
lwrist 4.82616
lhand -21.9574 -20.885
lfingers 7.12502
lthumb 4.44986 9.04822
rfemur -17.0434 1.2898 22.0456
rtibia 24.8804
rfoot -19.1907 -5.10415
rtoes 5.18621
lfemur 0.274346 4.5876 -17.2052
ltibia 56.4455
lfoot -0.353636 1.0639
ltoes 0.351179
223
root -5.13183 16.9483 -0.291862 210.625 87.7249 206.561
lowerback 13.4888 -0.140691 0.706982
upperback 4.15071 0.307183 3.88019
thorax -3.21077 0.242768 3.61251
lowerneck -24.5019 1.5037 5.08987
upperneck 22.7753 1.05695 -2.81589
head 11.5318 0.586161 -1.70428
rclavicle -2.38542e-015 -6.36111e-015
rhumerus -28.6728 -20.3378 -71.9163
rradius 37.7514
rwrist -9.86057
rhand -21.5633 -29.8772
rfingers 7.12502
rthumb 4.83043 -59.8021
lclavicle -2.38542e-015 -6.36111e-015
lhumerus -33.1897 -28.2978 97.844
lradius 45.8567
lwrist 3.56807
lhand -20.1378 -19.3002
lfingers 7.12502
lthumb 6.20675 10.5888
rfemur -14.8564 1.31971 22.9768
rtibia 23.0238
rfoot -19.0794 -4.41206
rtoes 2.79093
lfemur -1.96937 5.90839 -16.2733
ltibia 57.1611
lfoot -1.11235 0.388302
ltoes 0.492301
224
root -4.86914 17.0223 -0.297886 234.38 88.0361 230.341
lowerback 13.5629 0.319885 1.19204
upperback 4.07164 0.985208 3.933
thorax -3.36703 0.578461 3.28288
lowerneck -24.8804 1.29759 4.72999
upperneck 23.2195 0.841304 -2.62308
head 11.7601 0.488044 -1.61431
rclavicle 7.15625e-015 1.43125e-014
rhumerus -27.9924 -17.0998 -74.0531
rradius 38.3067
rwrist -12.7644
rhand -20.664 -29.8092
rfingers 7.12502
rthumb 5.69878 -59.7126
lclavicle 7.15625e-015 1.43125e-014
lhumerus -33.2766 -27.0646 98.4071
lradius 41.4974
lwrist 2.25754
lhand -18.2752 -18.0064
lfingers 7.12502
lthumb 8.00474 11.822
rfemur -12.7812 1.4357 23.5431
rtibia 21.1364
rfoot -19.0257 -3.47145
rtoes 2.6562
lfemur -4.35014 7.27993 -15.6883
ltibia 57.7936
lfoot -1.92246 -0.226264
ltoes 0.239873
225
root -4.59526 17.0962 -0.292854 224.341 87.8085 220.484
lowerback 13.7012 0.399182 1.23162
upperback 3.96862 1.09543 3.84107
thorax -3.5534 0.631914 3.14481
lowerneck -24.9656 1.20282 4.74125
upperneck 23.4904 0.714462 -2.6437
head 11.8752 0.434633 -1.64857
rclavicle 8.74653e-015 3.49861e-014
rhumerus -27.75 -13.1019 -76.1772
rradius 39.4212
rwrist -15.5302
rhand -19.916 -29.5887
rfingers 7.12502
rthumb 6.42092 -59.4714
lclavicle 8.74653e-015 3.49861e-014
lhumerus -33.6055 -25.6355 98.6562
lradius 37.6795
lwrist 0.722387
lhand -16.5775 -16.7306
lfingers 7.12502
lthumb 9.64305 13.0287
rfemur -10.2883 1.09805 23.4347
rtibia 19.0206
rfoot -19.2589 -3.61531
rtoes 1.0674
lfemur -6.75264 7.42807 -15.7631
ltibia 58.4459
lfoot -2.98022 -0.937729
ltoes -1.16367
226
root -4.34553 17.1547 -0.293664 241.557 88.1882 237.516
lowerback 13.7681 0.860058 1.369
upperback 3.7253 1.70906 3.67311
thorax -3.86505 0.928525 2.78521
lowerneck -24.933 1.11742 4.96405
upperneck 23.7278 0.559414 -2.78178
head 11.9552 0.373283 -1.76674
rclavicle -1.98785e-015 -1.59028e-015
rhumerus -27.5258 -8.98814 -78.3069
rradius 40.4841
rwrist -17.3124
rhand -19.1404 -29.4157
rfingers 7.12502
rthumb 7.16966 -59.2743
lclavicle -1.98785e-015 -1.59028e-015
lhumerus -34.1731 -23.9794 98.534
lradius 34.3556
lwrist -1.50045
lhand -15.0723 -15.963
lfingers 7.12502
lthumb 11.095 13.7237
rfemur -8.91146 1.05399 23.5348
rtibia 17.8379
rfoot -19.3824 -3.05457
rtoes -1.29119
lfemur -9.51148 8.4703 -15.7963
ltibia 58.9213
lfoot -4.17393 -1.37517
ltoes -0.523132
